<svg width="33" height="32" viewBox="0 0 33 32" fill="none" xmlns="http://www.w3.org/2000/svg">
<path d="M2.92675 2.42143C4.28808 1.05858 6.2557 0.634725 8.09707 1.32865L28.5909 9.82333C31.011 10.7348 31.7585 12.9941 31.4248 14.8271C31.0898 16.6626 29.5947 18.5131 27.007 18.5131H19.0328V26.5076C19.0328 29.0945 17.1826 30.5911 15.3488 30.9237C15.075 30.9737 14.7925 31 14.5062 31C12.8699 31 11.121 30.1573 10.3572 28.1305L1.81918 7.554C1.13914 5.75104 1.56291 3.78303 2.92675 2.42143ZM4.14432 6.63376L12.6824 27.2103C13.1149 28.3543 14.1137 28.6081 14.9 28.4656C15.69 28.3218 16.5338 27.7317 16.5338 26.5089V17.264C16.5338 16.5726 17.0926 16.0137 17.7839 16.0137H27.007C28.2308 16.0137 28.8209 15.1697 28.9646 14.3795C29.1071 13.5905 28.8534 12.5928 27.6708 12.1477L7.17701 3.653C6.8945 3.54672 6.60823 3.49421 6.32696 3.49421C5.72567 3.49421 5.14939 3.73302 4.69311 4.18939C4.02432 4.85831 3.82555 5.78729 4.14432 6.63376Z" fill="#D5D5D5" stroke="#D5D5D5" stroke-width="2"/>
</svg>
